<?xml version="1.0" encoding="UTF-8" standalone="no"?>
<!-- Created with Inkscape (http://www.inkscape.org/) -->
<svg
   xmlns:dc="http://purl.org/dc/elements/1.1/"
   xmlns:cc="http://creativecommons.org/ns#"
   xmlns:rdf="http://www.w3.org/1999/02/22-rdf-syntax-ns#"
   xmlns:svg="http://www.w3.org/2000/svg"
   xmlns="http://www.w3.org/2000/svg"
   xmlns:sodipodi="http://sodipodi.sourceforge.net/DTD/sodipodi-0.dtd"
   xmlns:inkscape="http://www.inkscape.org/namespaces/inkscape"
   version="1.0"
   width="1024"
   height="731"
   viewBox="0 0 1024 732"
   id="svg2160"
   sodipodi:version="0.32"
   inkscape:version="0.46"
   sodipodi:docname="Brain_Surface_Gyri.SVG"
   inkscape:output_extension="org.inkscape.output.svg.inkscape">
  <metadata
     id="metadata214">
    <rdf:RDF>
      <cc:Work
         rdf:about="">
        <dc:format>image/svg+xml</dc:format>
        <dc:type
           rdf:resource="http://purl.org/dc/dcmitype/StillImage" />
      </cc:Work>
    </rdf:RDF>
  </metadata>
  <sodipodi:namedview
     inkscape:window-height="990"
     inkscape:window-width="1680"
     inkscape:pageshadow="2"
     inkscape:pageopacity="0.0"
     guidetolerance="10.0"
     gridtolerance="10.0"
     objecttolerance="10.0"
     borderopacity="1.0"
     bordercolor="#666666"
     pagecolor="#ffffff"
     id="base"
     showgrid="false"
     inkscape:zoom="0.546875"
     inkscape:cx="71.691962"
     inkscape:cy="231.18839"
     inkscape:window-x="-4"
     inkscape:window-y="-4"
     inkscape:current-layer="svg2160" />
  <defs
     id="defs2162">
    <inkscape:perspective
       sodipodi:type="inkscape:persp3d"
       inkscape:vp_x="0 : 365.5 : 1"
       inkscape:vp_y="0 : 1000 : 0"
       inkscape:vp_z="1024 : 365.5 : 1"
       inkscape:persp3d-origin="512 : 243.66667 : 1"
       id="perspective216" />
  </defs>
  <g
     id="g2601">
    <g
       style="fill:white;fill-rule:evenodd;stroke:black;stroke-width:2"
       id="Brain_stem">
      <path
         id="path2171"
         d="M 518,579 C 525,607 538,626 559,634 C 589,648 612,682 636,712 C 649,705 663,699 674,689 L 560,553 L 518,579 z " />
      <path
         id="path2173"
         d="M 551,571 C 551,577 552,583 558,589 C 560,623 573,634 591,634 C 671,685 732,688 778,658 C 797,647 827,636 829,625 C 851,614 864,603 876,592 C 895,576 895,548 887,513 C 697,507 601,532 551,571 z " />
      <path
         id="path2845"
         style="stroke:none"
         d="M 472.62412,552.48678 L 499.0534,589.89967 L 519.64765,584.75111 L 543.67428,573.76751 L 564.95501,565.52981 L 581.43041,554.54621 C 581.43041,554.54621 583.48983,556.60563 592.75724,558.32182 C 602.02466,560.03801 638.75107,553.51649 638.75107,553.51649 C 638.75107,553.51649 675.13425,550.08412 685.77461,547.33822 C 696.41497,544.59232 711.51742,536.35462 711.51742,536.35462 C 711.51742,536.35462 727.99282,533.60872 739.31966,527.77368 C 750.6465,521.93864 757.51125,516.44684 757.51125,516.44684 C 757.51125,516.44684 787.37291,526.74397 802.47536,526.40073 C 817.57781,526.05749 832.68026,520.90893 832.68026,520.90893 L 839.54501,517.13332 C 839.54501,517.13332 871.4661,521.59541 892.40359,517.13332 C 913.34108,512.67123 926.3841,508.20914 932.56238,503.74706 C 938.74065,499.28497 686.46108,493.44993 686.46108,493.44993 L 472.62412,552.48678 z " />
    </g>
    <g
       id="g2594">
      <path
         id="Brocas_Area"
         style="fill:#b4d8ec"
         d="M 307.50938,428.15816 C 301.86751,433.25657 276.64768,428.93837 248.06925,428.09991 C 225.17948,427.42824 203.29438,419.0599 198.77887,399.73877 C 204.26317,377.06811 207.35276,364.76608 216.9944,359.15708 C 221.79256,356.36577 228.51065,355.19526 228.48255,352.122 C 228.33036,335.47879 231.37884,332.32701 246.86935,319.34843 C 254.0216,311.69637 266.65515,320.5934 277.76099,323.29938 C 283.04923,305.12594 282.2594,306.21877 294.01285,295.82535 C 310.18098,285.04053 290.831,296.66576 328.35316,273.06629 C 344.41913,262.96164 355.10371,260.19427 357.9311,261.41432 C 362.92928,269.2017 360.01014,269.41717 373.85462,307.16279 C 384.40055,326.30199 382.63097,354.52876 349.72704,385.78796 C 345.34984,390.10361 350.91941,394.54347 320.08842,423.07402 C 317.64912,425.33131 312.55746,423.59632 307.50934,428.15807 L 307.50938,428.15816 z"
         sodipodi:nodetypes="cscsscccscccscc" />
      <path
         id="Angular_Gyrus"
         style="fill:#ffac75"
         d="M 625.10404,319.89597 C 625.21094,320.01652 625.3186,320.13785 625.42666,320.2637 C 625.3186,320.13746 625.21135,320.01691 625.10404,319.89597 z M 625.47743,320.32359 L 625.74549,320.64318 L 627.54317,321.03024 C 653.86139,299.96481 688.95592,270.82737 699.57686,240.57075 C 708.87957,235.96659 719.38214,233.92209 729.45257,237.92084 C 768.38228,253.37901 755.81968,303.70644 734.28037,311.81949 C 679.29998,332.52933 645.89298,337.41817 630.82779,328.85886 C 630.46042,327.78639 629.9862,326.74803 629.36179,325.74912 C 627.98568,323.54806 626.70546,321.76592 625.47757,320.32344 L 625.47743,320.32359 z" />
      <path
         id="Wernickes_Area"
         style="fill:#b6cf9d"
         d="M 559.88373,310.66439 C 571.77115,308.43566 580.98173,309.21964 592.53216,312.18079 C 613.33939,317.51584 618.25255,307.97733 629.36054,325.74914 C 634.87111,334.56507 628.79149,346.5018 639.05221,356.76251 C 642.50619,360.21649 649.87549,381.67579 641.22784,386.56276 C 635.1103,390.01978 613.95279,393.3297 606.43032,393.96013 L 573.88731,396.68964 C 568.48778,397.14228 554.21927,399.63222 546.68351,403.33638 C 543.23564,405.03095 542.16957,399.84449 538.25876,396.92696 C 527.30431,388.75359 529.39884,369.22425 531.71853,349.00934 C 532.94495,338.32331 530.84361,335.14532 526.62874,327.68765 C 519.65028,315.3396 535.51632,312.90617 548.62294,312.90617 L 559.88373,310.66456 L 559.88373,310.66439 z" />
      <path
         id="Supramarginal_Gyrus"
         style="fill:#fcfb98"
         d="M 677.90742,180.69099 L 677.2205,179.77538 C 740.47947,227.70414 671.66442,285.7122 627.54009,321.03012 L 625.74242,320.64307 C 616.91281,309.97634 610.94617,316.90287 592.53029,312.1808 C 580.9799,309.21965 571.76928,308.43568 559.88186,310.6644 L 553.69458,311.8961 C 549.37928,312.10839 545.2706,312.53677 541.34203,313.19337 C 536.62112,313.59711 522.07077,318.14446 518.98679,319.84776 C 526.3275,316.01327 534.15027,336.52781 511.19259,299.78372 C 510.81274,277.58896 516.59963,259.93207 517.92031,239.88391 C 519.4836,216.15283 528.51048,193.61632 535.54123,189.55296 C 554.10118,178.82748 560.57129,174.21132 571.53068,164.94618 C 584.07566,152.89072 583.77259,154.14826 590.3007,148.39585 C 596.48174,142.94926 602.23885,137.24509 606.71423,139.57984 C 616.8504,144.86775 618.02835,145.95297 624.58948,160.41335 M 624.58948,160.41335 C 642.37229,146.95937 669.92425,171.87504 677.90742,180.69099"
         sodipodi:nodetypes="ccccscccccsscssscc" />
      <path
         id="Primary_Auditory_Cortex"
         style="fill:#f7a6b6"
         d="M 451.09248,349.98848 C 444.23154,372.73822 458.51242,374.64761 466.14302,376.25391 C 482.08216,376.90198 512.45129,382.47185 530.12306,360.14286 C 530.3979,357.39287 530.45294,353.4814 531.67213,349.40118 L 531.71724,349.00919 C 532.94365,338.32315 530.84231,335.14516 526.62743,327.68748 C 524.51168,323.94351 524.49727,321.11353 525.86811,318.98411 C 525.58797,318.83134 525.30135,318.68046 525.00451,318.53451 C 512.2406,324.77902 501.19139,333.03432 490.4606,342.66418 L 451.09248,349.98848 z"
         sodipodi:nodetypes="cccccscccc" />
    </g>
    <g
       style="fill:none;fill-rule:evenodd;stroke:black;stroke-width:2"
       id="Brain">
      <path
         id="path2179"
         style="stroke-width:4"
         d="M 436,56 C 405,54 370,60 340,77 C 325,78 309,86 296,92 C 267,94 242,104 220,121 C 201,127 181,134 164,149 C 132,168 111,190 101,217 C 80,224 69,240 69,262 C 54,275 44,292 42,314 C 34,331 35,348 40,365 C 39,371 35,378 40,384 C 35,395 37,406 42,417 C 45,417 46,430 50,432 C 52,461 59,480 68,494 C 78,510 88,524 104,528 C 120,560 186,558 266,547 C 273,558 280,566 287,574 C 298,597 316,611 338,620 C 356,636 378,647 419,631 C 458,629 489,620 499,590 C 509,589 522,584 543,574 C 558,571 570,563 581,554 C 592,562 615,558 638,554 C 674,552 699,547 711,537 C 728,532 745,527 758,517 C 788,527 816,531 839,517 C 906,524 959,510 973,438 C 984,426 981,408 976,390 C 987,372 972,357 957,341 C 955,320 945,305 930,292 C 932,278 927,266 907,256 C 899,232 885,217 868,206 C 868,181 847,165 816,153 C 792,124 762,103 727,88 C 713,77 699,76 685,78 C 669,58 641,53 603,60 C 593,53 582,53 572,53 C 549,51 529,50 512,50 C 483,44 459,48 436,56 z " />
      <path
         id="path2181"
         d="M 149,168 C 138,178 138,185 145,189" />
      <path
         id="path2183"
         d="M 178,155 C 227,121 263,118 288,135" />
      <path
         id="path2185"
         d="M 254,184 C 273,170 281,143 296,124 C 316,94 354,119 378,117" />
      <path
         id="path2187"
         d="M 129,215 C 117,229 132,241 132,254" />
      <path
         id="path2189"
         d="M 91,256 C 108,247 104,227 120,213 C 131,199 167,198 180,179 C 194,158 212,151 233,155" />
      <path
         id="path2191"
         d="M 217,174 C 228,163 236,152 243,141" />
      <path
         id="path2193"
         d="M 285,176 C 296,168 301,158 300,147" />
      <path
         id="path2195"
         d="M 274,108 C 282,111 293,109 310,97" />
      <path
         id="path2197"
         d="M 297,93 C 293,98 290,103 290,107" />
      <path
         id="path2199"
         d="M 341,77 C 343,81 346,84 349,84" />
      <path
         id="path2201"
         d="M 369,65 C 365,70 362,74 360,78" />
      <path
         id="path2203"
         d="M 457,64 C 449,65 441,63 433,56" />
      <path
         id="path2205"
         d="M 471,124 C 461,122 453,118 457,95 C 458,75 442,69 414,71 C 388,73 364,75 353,81 C 344,90 334,99 322,109" />
      <path
         id="path2207"
         d="M 357,89 C 350,96 348,104 350,112" />
      <path
         id="path2209"
         d="M 431,82 C 421,99 407,114 397,123 C 376,145 362,169 384,195" />
      <path
         id="path2211"
         d="M 372,169 C 361,170 353,163 346,153 C 341,143 327,143 321,124" />
      <path
         id="path2213"
         d="M 454,129 C 405,131 406,162 382,173" />
      <path
         id="path2215"
         d="M 486,178 C 490,162 479,156 454,157 C 442,158 430,158 421,153" />
      <path
         id="path2217"
         d="M 461,182 C 435,191 410,194 384,196 C 372,195 355,234 353,247" />
      <path
         id="path2219"
         d="M 48,324 C 55,313 62,307 71,304" />
      <path
         id="path2221"
         d="M 71,311 C 67,294 98,289 107,279 C 113,274 118,255 149,248 C 166,242 180,224 200,206 C 208,197 223,193 240,192" />
      <path
         id="path2223"
         d="M 211,167 C 202,179 195,194 205,201" />
      <path
         id="path2225"
         d="M 169,236 C 167,248 167,260 168,271" />
      <path
         id="path2227"
         d="M 199,257 C 192,268 180,281 185,296" />
      <path
         id="path2229"
         d="M 175,292 C 193,297 203,315 216,320" />
      <path
         id="path2231"
         d="M 184,282 C 178,272 169,267 157,276 C 140,286 124,297 107,307 C 91,321 86,335 93,349" />
      <path
         id="path2233"
         d="M 49,352 C 62,337 76,330 90,331" />
      <path
         id="path2235"
         d="M 71,335 C 68,332 63,331 57,330" />
      <path
         id="path2237"
         d="M 103,319 C 127,306 139,309 143,322 C 153,376 169,386 184,400" />
      <path
         id="path2239"
         d="M 156,299 C 152,303 146,309 140,316" />
      <path
         id="path2241"
         d="M 206,268 C 224,252 249,235 202,219" />
      <path
         id="path2243"
         d="M 229,242 C 258,241 274,247 275,263 C 276,274 269,285 270,297" />
      <path
         id="path2245"
         d="M 350,386 C 375,362 390,340 373,302 C 367,283 360,265 353,247 C 322,247 295,252 275,262" />
      <path
         id="path2247"
         d="M 323,276 C 308,290 276,299 278,324 C 279,371 296,381 307,392 C 311,395 315,407 325,419" />
      <path
         id="path2249"
         d="M 256,149 C 251,168 230,188 249,210 C 256,205 275,205 284,203 C 300,193 343,210 360,198" />
      <path
         id="path2251"
         d="M 436,269 C 444,239 429,221 400,212" />
      <path
         id="path2253"
         d="M 453,346 C 439,344 409,323 413,302 C 410,277 395,268 394,258 C 392,253 399,241 393,234" />
      <path
         id="path2255"
         d="M 308,393 C 316,380 316,368 296,354" />
      <path
         id="path2257"
         d="M 243,275 C 244,289 245,302 251,316" />
      <path
         id="path2259"
         d="M 278,324 C 262,319 249,312 244,322 C 239,326 225,332 229,350 C 228,358 199,362 188,367" />
      <path
         id="path2261"
         d="M 209,369 C 200,376 203,390 199,400 C 201,421 225,425 250,428" />
      <path
         id="path2263"
         d="M 96,366 C 102,372 113,377 137,380 C 147,382 146,389 169,396 C 178,397 189,398 199,400" />
      <path
         id="path2265"
         d="M 111,336 C 105,342 92,347 91,355 C 89,363 83,371 78,379 C 70,394 65,406 66,416 C 67,437 90,448 102,461" />
      <path
         id="path2267"
         d="M 47,371 C 44,369 42,367 40,365" />
      <path
         id="path2269"
         d="M 70,362 C 63,369 56,376 51,385 C 47,396 48,405 46,424" />
      <path
         id="path2271"
         d="M 51,387 C 51,384 49,382 47,380" />
      <path
         id="path2273"
         d="M 51,432 C 53,426 62,420 57,413" />
      <path
         id="path2275"
         d="M 70,495 C 72,491 71,486 73,484" />
      <path
         id="path2277"
         d="M 104,528 C 110,518 111,512 107,511" />
      <path
         id="path2279"
         d="M 114,515 L 109,512" />
      <path
         id="path2281"
         d="M 87,449 C 77,469 88,483 115,492" />
      <path
         id="path2283"
         d="M 84,394 C 106,406 129,431 149,438 C 171,446 203,474 222,461" />
      <path
         id="path2285"
         d="M 250,446 C 235,449 217,461 217,469 C 218,483 262,493 280,489" />
      <path
         id="path2287"
         d="M 104,471 C 111,477 121,479 140,470 C 160,464 167,471 181,475" />
      <path
         id="path2289"
         d="M 219,473 C 195,471 183,472 175,480 C 161,489 147,487 142,488 C 136,490 119,507 95,495" />
      <path
         id="path2291"
         d="M 154,547 C 187,549 222,548 258,543" />
      <path
         id="path2293"
         d="M 192,507 C 184,505 180,501 180,494 C 179,508 171,511 165,517 C 158,522 159,530 153,537" />
      <path
         id="path2295"
         d="M 228,488 C 208,488 189,487 175,480" />
      <path
         id="path2297"
         d="M 217,488 C 220,505 243,507 255,513" />
      <path
         id="path2299"
         d="M 209,503 C 211,499 217,499 221,496" />
      <path
         id="path2301"
         d="M 237,500 C 242,496 248,494 252,489" />
      <path
         id="path2303"
         d="M 266,501 C 257,486 285,481 292,465" />
      <path
         id="path2305"
         d="M 264,406 C 280,419 303,426 317,430" />
      <path
         id="path2307"
         d="M 249,468 C 278,468 304,449 309,427 C 310,425 317,424 321,423" />
      <path
         id="path2309"
         d="M 498,63 C 503,58 510,53 521,50" />
      <path
         id="path2311"
         d="M 516,73 C 490,73 468,77 457,96" />
      <path
         id="path2313"
         d="M 489,91 C 495,95 499,99 499,104" />
      <path
         id="path2315"
         d="M 776,364 C 780,318 691,305 647,381 C 641,397 587,391 559,399 C 534,409 509,423 484,438 C 474,454 439,428 419,430 C 354,437 353,534 417,550" />
      <path
         id="path2317"
         d="M 536,327 C 537,347 515,386 548,404" />
      <path
         id="path2319"
         d="M 475,369 C 486,365 489,348 496,339" />
      <path
         id="path2321"
         d="M 453,394 C 448,405 454,409 465,410" />
      <path
         id="path2323"
         d="M 495,581 C 534,546 528,483 467,487 C 446,489 431,484 421,474" />
      <path
         id="path2325"
         d="M 525,473 C 539,498 553,492 570,492 C 600,491 617,461 596,429" />
      <path
         id="path2327"
         d="M 546,492 C 533,496 523,502 516,510" />
      <path
         id="path2329"
         d="M 493,514 C 481,518 469,531 455,540 C 443,558 426,565 417,575 C 407,590 402,621 345,604" />
      <path
         id="path2331"
         d="M 494,591 C 466,607 421,593 415,600" />
      <path
         id="path2333"
         d="M 567,452 C 557,449 551,435 546,428" />
      <path
         id="path2335"
         d="M 392,411 C 414,423 433,420 452,405" />
      <path
         id="path2337"
         d="M 418,418 C 410,430 401,435 390,434 C 378,432 361,445 341,461 C 325,474 319,488 315,503 C 312,521 309,529 305,536" />
      <path
         id="path2339"
         d="M 327,442 C 325,454 329,462 337,465" />
      <path
         id="path2341"
         d="M 314,587 C 304,584 292,574 284,571" />
      <path
         id="path2343"
         d="M 356,542 C 318,560 310,588 339,621" />
      <path
         id="path2345"
         d="M 333,503 C 331,516 340,525 349,533 C 357,537 357,548 359,551 C 371,568 373,579 374,589" />
      <path
         id="path2347"
         d="M 611,358 C 625,342 650,355 669,353" />
      <path
         id="path2349"
         d="M 562,373 C 574,363 579,350 575,332" />
      <path
         id="path2351"
         d="M 586,365 C 582,362 578,359 575,355" />
      <path
         id="path2353"
         d="M 581,554 C 577,544 580,534 590,525" />
      <path
         id="path2355"
         d="M 562,548 C 565,543 575,542 581,539" />
      <path
         id="path2357"
         d="M 639,509 C 636,528 649,537 677,538" />
      <path
         id="path2359"
         d="M 630,540 C 635,520 622,501 596,482" />
      <path
         id="path2361"
         d="M 631,528 C 634,526 637,524 640,522" />
      <path
         id="path2363"
         d="M 683,467 C 668,464 656,458 656,442 C 653,428 635,414 643,386" />
      <path
         id="path2365"
         d="M 612,480 C 624,492 648,477 670,477 C 724,475 738,504 712,536" />
      <path
         id="path2367"
         d="M 724,512 C 750,511 768,501 779,480" />
      <path
         id="path2369"
         d="M 758,518 L 749,508" />
      <path
         id="path2371"
         d="M 798,506 C 814,506 828,509 839,518" />
      <path
         id="path2373"
         d="M 830,500 C 825,503 820,505 815,507" />
      <path
         id="path2375"
         d="M 856,507 C 853,490 864,482 865,472" />
      <path
         id="path2377"
         d="M 675,403 C 683,410 693,416 691,424 C 694,441 715,443 727,445 C 751,455 773,466 760,486" />
      <path
         id="path2379"
         d="M 549,310 C 536,306 524,298 512,284" />
      <path
         id="path2381"
         d="M 588,152 C 579,158 569,170 555,179 C 541,187 526,194 519,219 C 517,241 519,256 514,270 C 510,283 508,295 514,304" />
      <path
         id="path2383"
         d="M 524,140 C 557,148 568,158 565,171" />
      <path
         id="path2385"
         d="M 727,434 C 733,424 733,415 733,405 C 743,389 797,411 804,366" />
      <path
         id="path2387"
         d="M 728,364 C 733,375 734,389 733,405" />
      <path
         id="path2389"
         d="M 512,183 C 518,192 521,201 523,209" />
      <path
         id="path2391"
         d="M 791,478 C 807,454 807,421 836,411" />
      <path
         id="path2393"
         d="M 753,457 C 755,451 758,446 761,442" />
      <path
         id="path2395"
         d="M 803,329 C 796,325 793,318 796,306" />
      <path
         id="path2397"
         d="M 773,346 C 781,341 788,331 795,318" />
      <path
         id="path2399"
         d="M 815,269 C 816,294 837,296 833,324" />
      <path
         id="path2401"
         d="M 762,322 C 763,295 777,279 794,265 C 804,254 816,248 809,213 C 813,192 838,169 816,154 C 790,142 768,118 728,117" />
      <path
         id="path2403"
         d="M 546,288 C 558,267 593,255 596,247 C 604,226 598,205 599,185 C 605,168 621,161 639,156 C 667,124 697,120 728,144" />
      <path
         id="path2405"
         d="M 600,220 C 596,215 591,212 586,209" />
      <path
         id="path2407"
         d="M 595,250 C 604,245 612,243 621,244" />
      <path
         id="path2409"
         d="M 505,116 C 556,121 620,129 624,161" />
      <path
         id="path2411"
         d="M 629,123 C 622,113 605,108 597,101" />
      <path
         id="path2413"
         d="M 597,77 C 604,89 608,100 615,112" />
      <path
         id="path2415"
         d="M 603,60 C 615,77 638,78 639,100" />
      <path
         id="path2417"
         d="M 634,85 C 636,82 638,80 640,77" />
      <path
         id="path2419"
         d="M 674,131 C 662,102 636,103 623,96" />
      <path
         id="path2421"
         d="M 659,100 C 675,106 683,116 683,129" />
      <path
         id="path2423"
         d="M 635,67 C 655,72 672,80 686,94" />
      <path
         id="path2425"
         d="M 671,106 C 676,93 699,90 728,89" />
      <path
         id="path2427"
         d="M 719,155 C 728,132 779,142 808,164" />
      <path
         id="path2429"
         d="M 625,180 C 641,172 660,170 679,181" />
      <path
         id="path2431"
         d="M 695,140 C 680,155 666,170 685,187 C 720,221 741,240 711,270" />
      <path
         id="path2433"
         d="M 782,162 C 791,175 791,190 785,204" />
      <path
         id="path2435"
         d="M 727,201 C 741,210 749,224 751,243 C 761,290 748,301 734,311" />
      <path
         id="path2437"
         d="M 641,293 C 671,300 693,301 698,285" />
      <path
         id="path2439"
         d="M 674,298 C 681,299 688,302 693,306" />
      <path
         id="path2441"
         d="M 732,327 C 743,312 732,304 686,296" />
      <path
         id="path2443"
         d="M 740,213 C 757,200 760,179 770,162" />
      <path
         id="path2445"
         d="M 809,214 C 830,212 846,220 859,237" />
      <path
         id="path2447"
         d="M 841,199 C 847,201 857,204 869,207" />
      <path
         id="path2449"
         d="M 912,290 C 898,295 889,306 884,321 C 871,331 864,346 860,362" />
      <path
         id="path2451"
         d="M 962,422 C 969,425 973,430 973,438" />
      <path
         id="path2453"
         d="M 941,328 C 937,333 932,335 925,336 C 916,344 910,353 910,364 C 917,381 918,394 914,405" />
      <path
         id="path2455"
         d="M 913,350 C 913,344 911,337 906,331" />
      <path
         id="path2457"
         d="M 937,403 C 943,394 947,384 947,369 C 948,357 951,347 956,341" />
      <path
         id="path2459"
         d="M 947,378 C 957,379 960,385 959,393 C 966,399 969,408 972,416" />
      <path
         id="path2461"
         d="M 677,197 C 668,215 652,232 650,251 C 634,286 579,283 566,310" />
      <path
         id="path2463"
         d="M 771,522 C 733,536 691,552 658,583" />
      <path
         id="path2465"
         d="M 663,571 C 675,562 687,553 699,544" />
      <path
         id="path2467"
         d="M 788,526 C 754,537 718,551 684,569" />
      <path
         id="path2469"
         d="M 811,527 C 759,544 702,568 651,592" />
      <path
         id="path2471"
         d="M 889,523 C 845,537 666,600 647,600 M 646,596 C 721,565 801,541 877,519" />
      <path
         id="path2473"
         d="M 891,544 C 845,561 693,600 657,604 C 736,578 813,557 890,533" />
      <path
         id="path2491"
         d="M 669,552 C 657,604 629,608 597,599 C 584,589 571,589 558,589" />
      <path
         id="path2493"
         d="M 644,598 C 653,583 657,569 659,554" />
      <path
         id="path2495"
         d="M 635,601 C 644,589 649,573 651,554" />
      <path
         id="path2497"
         d="M 623,603 C 637,591 642,575 641,554" />
      <path
         id="path2499"
         d="M 616,602 C 626,589 633,574 634,556" />
      <path
         id="path2501"
         d="M 607,602 C 617,589 625,574 629,557" />
      <path
         id="path2503"
         d="M 600,600 L 623,558" />
      <path
         id="path2505"
         d="M 594,598 C 600,585 604,570 612,560" />
      <path
         id="path2507"
         d="M 590,594 C 595,583 597,570 601,560" />
      <path
         id="path2509"
         d="M 585,593 C 586,581 589,570 592,559" />
      <path
         id="path2511"
         d="M 579,591 L 583,556" />
      <path
         id="path2513"
         d="M 575,590 C 573,581 572,572 572,563" />
      <path
         id="path2515"
         d="M 567,589 C 563,582 563,575 564,568" />
      <path
         id="path2517"
         d="M 561,589 L 557,571" />
      <path
         id="path2519"
         d="M 588,593 C 586,604 591,613 600,621" />
      <path
         id="path2521"
         d="M 578,591 C 576,605 580,619 592,628" />
      <path
         id="path2523"
         d="M 564,590 C 567,609 576,624 590,633" />
      <path
         id="path2525"
         d="M 590,633 C 599,623 607,611 616,603" />
      <path
         id="path2527"
         d="M 869,551 C 841,580 804,604 758,623 C 719,620 680,607 641,599" />
      <path
         id="path2529"
         d="M 677,601 C 709,606 740,611 772,617" />
      <path
         id="path2531"
         d="M 786,610 C 757,605 729,600 701,596" />
      <path
         id="path2533"
         d="M 727,590 C 752,594 773,597 797,604" />
      <path
         id="path2535"
         d="M 746,585 C 768,585 789,590 808,598" />
      <path
         id="path2537"
         d="M 774,578 C 789,580 805,584 820,591" />
      <path
         id="path2539"
         d="M 832,583 C 823,582 812,583 802,583" />
      <path
         id="path2541"
         d="M 843,574 C 823,578 805,578 790,574" />
      <path
         id="path2543"
         d="M 804,570 C 813,572 832,570 851,567 C 865,563 878,558 891,552" />
      <path
         id="path2545"
         d="M 594,630 C 628,654 679,671 738,676" />
      <path
         id="path2547"
         d="M 597,624 C 638,655 694,666 756,670" />
      <path
         id="path2549"
         d="M 601,621 C 667,660 723,668 775,659" />
      <path
         id="path2551"
         d="M 604,616 C 669,652 729,661 786,653" />
      <path
         id="path2553"
         d="M 608,611 C 678,645 741,654 801,647" />
      <path
         id="path2555"
         d="M 613,607 C 676,638 742,648 811,641" />
      <path
         id="path2557"
         d="M 624,603 C 691,635 756,636 821,634" />
      <path
         id="path2559"
         d="M 758,623 C 765,632 790,632 829,626" />
      <path
         id="path2561"
         d="M 770,618 C 776,627 804,624 839,619" />
      <path
         id="path2563"
         d="M 788,610 C 801,614 834,606 871,596" />
      <path
         id="path2565"
         d="M 777,615 C 786,621 820,616 857,608" />
      <path
         id="path2567"
         d="M 885,579 C 844,597 813,607 797,605" />
      <path
         id="path2569"
         d="M 808,598 C 830,597 859,585 888,573" />
      <path
         id="path2571"
         d="M 822,590 C 844,585 867,576 890,566" />
      <path
         id="path2573"
         d="M 891,558 C 873,567 855,574 836,580" />
      <path
         id="path2575"
         d="M 634,601 C 679,617 727,627 774,630" />
      <path
         id="path2577"
         style="fill:black;stroke-width:1"
         d="M 884,320 C 882,290 835,243 807,252 C 830,236 890,275 884,320 z " />
      <path
         id="path2579"
         style="fill:black;stroke-width:1"
         d="M 264,547 C 260,519 273,494 294,473 C 317,455 312,429 322,421 C 336,394 373,377 425,368 C 441,349 462,339 491,340 C 511,323 529,307 566,307 C 568,316 571,325 575,333 C 571,328 565,322 561,315 C 528,312 505,331 492,347 C 469,342 449,349 430,371 C 377,381 339,397 326,424 C 319,448 311,468 296,476 C 279,494 264,520 274,558 C 271,555 268,550 264,547 z " />
      <path
         id="path2581"
         style="fill:black;stroke-width:1"
         d="M 567,54 C 558,60 562,75 556,86 C 508,89 481,107 490,140 C 501,153 503,162 496,168 C 482,176 477,197 472,220 C 462,233 456,254 456,276 C 455,295 427,306 431,322 C 433,322 434,322 435,322 C 435,315 439,308 446,302 C 455,297 459,285 462,269 C 461,255 465,241 476,226 C 481,207 483,179 503,170 C 515,165 508,152 497,136 C 484,104 519,96 556,91 C 571,87 567,63 577,55 C 574,54 570,54 567,54 z " />
      <path
         id="path2583"
         d="M 530,160 C 521,157 513,158 506,164" />
      <path
         id="path2599"
         style="fill:black;stroke-width:1"
         d="M 903,251 C 896,259 888,268 880,276 C 887,276 896,271 908,256 L 903,251 z " />
      <path
         id="path2601"
         style="fill:black;stroke-width:1"
         d="M 881,277 C 864,291 847,306 835,321 C 826,333 825,350 828,369 C 830,383 832,397 835,410 C 839,410 842,410 846,411 C 862,427 902,424 914,430 C 921,440 927,447 931,445 C 938,452 943,460 946,468 C 943,458 949,458 928,434 C 919,425 898,420 865,415 C 842,407 837,393 835,375 C 831,358 829,342 835,325 C 848,309 864,293 881,277 z " />
      <path
         id="path2609"
         style="fill:black;stroke-width:1"
         d="M 838,407 C 841,430 849,451 866,467 C 900,468 921,487 951,488 L 944,495 C 930,496 917,484 904,482 C 893,478 871,477 861,472 C 846,451 837,429 838,407 z " />
    </g>
  </g>
</svg>
